<svg id="canvas" enable-background="new 0 0 300 300" height="512" viewBox="0 0 300 300" width="512" xmlns="http://www.w3.org/2000/svg"><g><path d="m74.484 203.516c-1.562-1.562-4.094-1.562-5.656 0l-2.828 2.828-2.828-2.828c-1.562-1.562-4.094-1.562-5.656 0s-1.562 4.094 0 5.656l2.828 2.828-2.828 2.828c-1.562 1.562-1.562 4.094 0 5.656.781.781 1.805 1.172 2.828 1.172s2.047-.391 2.828-1.172l2.828-2.828 2.828 2.828c.781.781 1.805 1.172 2.828 1.172s2.047-.391 2.828-1.172c1.562-1.562 1.562-4.094 0-5.656l-2.828-2.828 2.828-2.828c1.563-1.563 1.563-4.094 0-5.656z"/><path d="m234 215.901c-2.264 0-4.099 1.835-4.099 4.099s1.835 4.099 4.099 4.099 4.099-1.835 4.099-4.099-1.835-4.099-4.099-4.099z"/><path d="m102 56c6.617 0 12-5.383 12-12s-5.383-12-12-12-12 5.383-12 12 5.383 12 12 12zm0-16c2.205 0 4 1.795 4 4s-1.795 4-4 4-4-1.795-4-4 1.795-4 4-4z"/><path d="m246 60h-84v-12c0-6.617-5.383-12-12-12s-12 5.383-12 12v12h-84c-2.209 0-4 1.791-4 4v124c0 2.209 1.791 4 4 4h65.374l-36.913 70.137c-.652 1.24-.609 2.73.115 3.932.725 1.199 2.024 1.931 3.424 1.931h16c1.484 0 2.848-.822 3.539-2.137l32.461-61.677v59.814c0 2.209 1.791 4 4 4h16c2.209 0 4-1.791 4-4v-59.814l32.461 61.677c.691 1.314 2.055 2.137 3.539 2.137h16c1.4 0 2.699-.732 3.424-1.932.725-1.201.768-2.691.115-3.932l-36.913-70.136h65.374c2.209 0 4-1.791 4-4v-124c0-2.209-1.791-4-4-4zm-100-12c0-2.205 1.795-4 4-4s4 1.795 4 4v12h-8zm96 20v64h-71.215l-17.32-30c-1.43-2.477-5.5-2.477-6.93 0l-5.293 9.17-15.777-27.328c-1.43-2.477-5.5-2.477-6.93 0l-27.804 48.158h-32.731v-64zm-80.454 64h-61.576l22.03-38.158 15.777 27.328c1.43 2.477 5.5 2.477 6.93 0l5.293-9.17zm-61.96 128h-6.961l35.788-68h6.961zm46.414 0v-68h8v68zm61.375 0h-6.961l-35.788-68h6.961zm-149.375-76v-12.243l130.139-8.132c2.205-.139 3.881-2.037 3.742-4.242-.137-2.203-1.99-3.912-4.242-3.742l-129.639 8.1v-23.741h184v12.242l-28.25 1.766c-2.205.139-3.881 2.037-3.742 4.242.133 2.119 1.893 3.75 3.988 3.75.084 0 .168-.002.254-.008l27.75-1.734v23.742z"/><path d="m186 116c11.027 0 20-8.973 20-20s-8.973-20-20-20-20 8.973-20 20 8.973 20 20 20zm0-32c6.617 0 12 5.383 12 12s-5.383 12-12 12-12-5.383-12-12 5.383-12 12-12z"/></g></svg>
